<svg width="1915" height="600" viewBox="0 0 1915 600" fill="none" xmlns="http://www.w3.org/2000/svg">
<g opacity="0.1">
<path d="M862 407H839C834.6 407 831 403.625 831 399.5C831 395.375 834.6 392 839 392H862C866.4 392 870 395.375 870 399.5C870 403.625 866.4 407 862 407ZM839 392.938C835.1 392.938 832 395.844 832 399.5C832 403.156 835.1 406.062 839 406.062H862C865.9 406.062 869 403.156 869 399.5C869 395.844 865.9 392.938 862 392.938H839Z" fill="white"/>
<path d="M551 396H549V415H551V396Z" fill="white"/>
<path d="M555 308H553V396H555V308Z" fill="white"/>
<path d="M873 387H554V385.145H871.001V311.855H554V310H873V387Z" fill="white"/>
<path d="M942 419H585V421H942V419Z" fill="white"/>
<path d="M947.371 410H945.359C945.359 402.368 948.579 399.949 950.088 399.111V392.317H942.341C942.158 392.323 941.978 392.282 941.818 392.2C941.659 392.118 941.526 391.998 941.435 391.851C941.234 391.572 941.334 391.2 941.536 390.921L946.365 384.685V362.721C934.995 328.657 906.218 318.699 903.904 317.861H894.043V334.614C894.043 335.172 893.641 335.545 893.037 335.545H892.031V341.129C892.031 341.687 891.628 342.059 891.025 342.059H889.012V386.733H887V341.129C887 340.57 887.402 340.198 888.006 340.198H890.019V334.614C890.019 334.055 890.421 333.683 891.025 333.683H892.031V316.931C892.031 316.372 892.433 316 893.037 316H904.407C904.709 316.093 936.203 325.865 948.277 362.255V384.871L948.076 385.43L944.152 390.455H950.994C951.598 390.455 952 390.828 952 391.386V399.762C952 400.228 951.698 400.6 951.195 400.693C951.396 400.693 947.371 401.903 947.371 410Z" fill="white"/>
<path d="M895 338H894V385H895V338Z" fill="white"/>
<path d="M933 337H891V338H933V337Z" fill="white"/>
<path d="M903 338H902V385H903V338Z" fill="white"/>
<path d="M913 370H908V371H913V370Z" fill="white"/>
<path d="M931.5 364C920.5 364 907.4 359.8 907.3 359.8L907 359.707V345.333C907 343.467 909.3 343 910.5 343H930.5C935.9 343 936 348.04 936 348.133V360.267C935.9 362.787 933 363.813 931.5 364ZM907.9 359.053C915.49 361.437 923.4 362.819 931.4 363.16C931.5 363.16 934.9 362.693 934.9 360.36V348.227C934.9 348.04 934.8 344.027 930.4 344.027H910.4C910.4 344.027 907.9 344.027 907.9 345.427V359.053Z" fill="white"/>
<path d="M935 358H932V343H932.857V357.013H935V358Z" fill="white"/>
<path d="M940 392H917V391.072H939.009V347H940V392Z" fill="white"/>
<path d="M938.361 410H924V401.928H941.016V392H942V405.175L941.803 405.361C940.82 406.103 938.361 408.33 938.361 409.629V410ZM925.082 409.072H937.475C937.869 407.309 940.328 405.268 941.115 404.711V402.856H925.082V409.072Z" fill="white"/>
<path d="M940 396H920V397H940V396Z" fill="white"/>
<path d="M777 400H742V386.966H743.02V399.034H775.98V386H777V400Z" fill="white"/>
<path d="M690 387H689V396H690V387Z" fill="white"/>
<path d="M724 387H723V396H724V387Z" fill="white"/>
<path d="M842 392H841V406H842V392Z" fill="white"/>
<path d="M860 392H859V406H860V392Z" fill="white"/>
<path d="M727 396H686V397H727V396Z" fill="white"/>
<path d="M638 398H610V399H638V398Z" fill="white"/>
<path d="M589 421C584.491 421 580.167 419.367 576.979 416.46C573.791 413.553 572 409.611 572 405.5C572 401.389 573.791 397.447 576.979 394.54C580.167 391.633 584.491 390 589 390C593.509 390 597.833 391.633 601.021 394.54C604.209 397.447 606 401.389 606 405.5C606 409.611 604.209 413.553 601.021 416.46C597.833 419.367 593.509 421 589 421ZM589 391.824C585.022 391.824 581.206 393.264 578.393 395.829C575.58 398.394 574 401.873 574 405.5C574 409.127 575.58 412.606 578.393 415.171C581.206 417.736 585.022 419.176 589 419.176C592.978 419.176 596.794 417.736 599.607 415.171C602.42 412.606 604 409.127 604 405.5C604 401.873 602.42 398.394 599.607 395.829C596.794 393.264 592.978 391.824 589 391.824Z" fill="white"/>
<path d="M658 421C653.491 421 649.167 419.367 645.979 416.46C642.791 413.553 641 409.611 641 405.5C641 401.389 642.791 397.447 645.979 394.54C649.167 391.633 653.491 390 658 390C662.509 390 666.833 391.633 670.021 394.54C673.209 397.447 675 401.389 675 405.5C675 409.611 673.209 413.553 670.021 416.46C666.833 419.367 662.509 421 658 421ZM658 391.824C654.022 391.824 650.206 393.264 647.393 395.829C644.58 398.394 643 401.873 643 405.5C643 409.127 644.58 412.606 647.393 415.171C650.206 417.736 654.022 419.176 658 419.176C661.978 419.176 665.794 417.736 668.607 415.171C671.42 412.606 673 409.127 673 405.5C673 401.873 671.42 398.394 668.607 395.829C665.794 393.264 661.978 391.824 658 391.824Z" fill="white"/>
<path d="M802 421C797.491 421 793.167 419.367 789.979 416.46C786.791 413.553 785 409.611 785 405.5C785 401.389 786.791 397.447 789.979 394.54C793.167 391.633 797.491 390 802 390C806.509 390 810.833 391.633 814.021 394.54C817.209 397.447 819 401.389 819 405.5C819 409.611 817.209 413.553 814.021 416.46C810.833 419.367 806.509 421 802 421ZM802 391.824C798.022 391.824 794.206 393.264 791.393 395.829C788.58 398.394 787 401.873 787 405.5C787 409.127 788.58 412.606 791.393 415.171C794.206 417.736 798.022 419.176 802 419.176C805.978 419.176 809.794 417.736 812.607 415.171C815.42 412.606 817 409.127 817 405.5C817 401.873 815.42 398.394 812.607 395.829C809.794 393.264 805.978 391.824 802 391.824Z" fill="white"/>
<path d="M899 421C894.491 421 890.167 419.367 886.979 416.46C883.791 413.553 882 409.611 882 405.5C882 401.389 883.791 397.447 886.979 394.54C890.167 391.633 894.491 390 899 390C903.509 390 907.833 391.633 911.021 394.54C914.209 397.447 916 401.389 916 405.5C916 409.611 914.209 413.553 911.021 416.46C907.833 419.367 903.509 421 899 421ZM899 391.824C895.022 391.824 891.206 393.264 888.393 395.829C885.58 398.394 884 401.873 884 405.5C884 409.127 885.58 412.606 888.393 415.171C891.206 417.736 895.022 419.176 899 419.176C902.978 419.176 906.794 417.736 909.607 415.171C912.42 412.606 914 409.127 914 405.5C914 401.873 912.42 398.394 909.607 395.829C906.794 393.264 902.978 391.824 899 391.824Z" fill="white"/>
<path d="M589 410C586.212 410 584 407.923 584 405.5C584 403.077 586.308 401 589 401C591.692 401 594 403.077 594 405.5C594 407.923 591.788 410 589 410ZM589 401.779C586.788 401.779 584.962 403.423 584.962 405.413C584.962 407.404 586.788 409.048 589 409.048C591.212 409.048 593.038 407.404 593.038 405.413C593.038 403.423 591.212 401.779 589 401.779Z" fill="white"/>
<path d="M658 410C655.212 410 653 407.923 653 405.5C653 403.077 655.308 401 658 401C660.692 401 663 403.077 663 405.5C663 407.923 660.788 410 658 410ZM658 401.779C655.788 401.779 653.962 403.423 653.962 405.413C653.962 407.404 655.788 409.048 658 409.048C660.212 409.048 662.038 407.404 662.038 405.413C662.038 403.423 660.212 401.779 658 401.779Z" fill="white"/>
<path d="M802 410C799.211 410 797 407.923 797 405.5C797 403.077 799.308 401 802 401C804.692 401 807 403.077 807 405.5C807 407.923 804.788 410 802 410ZM802 401.779C799.788 401.779 797.962 403.423 797.962 405.413C797.962 407.404 799.788 409.048 802 409.048C804.212 409.048 806.038 407.404 806.038 405.413C806.038 403.423 804.308 401.779 802 401.779Z" fill="white"/>
<path d="M899 410C896.211 410 894 407.923 894 405.5C894 403.077 896.308 401 899 401C901.692 401 904 403.077 904 405.5C904 407.923 901.788 410 899 410ZM899 401.779C896.788 401.779 894.962 403.423 894.962 405.413C894.962 407.404 896.788 409.048 899 409.048C901.212 409.048 903.038 407.404 903.038 405.413C903.038 403.423 901.308 401.779 899 401.779Z" fill="white"/>
<path d="M564.806 405L564 404.44C567.326 400.617 575.992 389.891 575.992 387H577C577 390.917 565.31 404.44 564.806 405Z" fill="white"/>
<path d="M632.806 405L632 404.44C635.326 400.617 643.992 389.891 643.992 387H645C645 390.917 633.31 404.44 632.806 405Z" fill="white"/>
<path d="M777.806 405L777 404.44C780.325 400.617 788.992 389.891 788.992 387H789.999C790.1 390.917 778.31 404.44 777.806 405Z" fill="white"/>
<path d="M612.418 406C610.48 404.624 610.286 403.248 610.092 401.596C609.773 398.489 608.529 395.53 606.505 393.064C604.566 390.404 600.107 388.294 594 386.917L594.194 386C597.878 386.826 604.469 388.661 607.281 392.514C610.48 396.826 610.77 399.486 611.061 401.505C611.255 403.156 611.352 404.165 613 405.266L612.418 406Z" fill="white"/>
<path d="M681.388 406C679.347 404.624 679.143 403.248 678.939 401.596C678.603 398.489 677.294 395.53 675.163 393.064C673.122 390.404 668.429 388.294 662 386.917L662.204 386C666.082 386.826 673.02 388.661 675.98 392.514C679.347 396.826 679.653 399.486 679.959 401.505C680.163 403.156 680.265 404.165 682 405.266L681.388 406Z" fill="white"/>
<path d="M826.388 406C824.347 404.624 824.143 403.248 823.939 401.596C823.603 398.489 822.294 395.53 820.163 393.064C818.122 390.404 813.429 388.294 807 386.917L807.204 386C811.082 386.826 818.02 388.661 820.98 392.514C824.347 396.826 824.653 399.486 824.959 401.505C825.163 403.156 825.265 404.165 827 405.266L826.388 406Z" fill="white"/>
<path d="M922.996 404L916.268 390.961C914.26 387.142 908.035 385.931 905.424 385.931H893.375C893.375 385.931 888.555 386.583 885.744 389.191C884.137 390.681 881.727 394.034 879.719 397.015C878.012 399.436 876.607 401.485 875.703 402.23L875 401.578C876.413 399.965 877.689 398.253 878.816 396.456C880.924 393.475 883.234 390.123 885.041 388.539C888.154 385.652 893.174 385 893.375 385H905.525C907.834 385 914.863 386.025 917.273 390.495L924 403.534L922.996 404Z" fill="white"/>
<path d="M304.164 415H303.119L303.851 282.052L298 276.652L298.731 276L305 281.679L304.164 415Z" fill="white"/>
<path d="M289.51 287.85L288.796 288.503L303.489 302.491L304.203 301.839L289.51 287.85Z" fill="white"/>
<path d="M286.474 314.021L285.757 314.671L303.325 331.514L304.042 330.864L286.474 314.021Z" fill="white"/>
<path d="M273.497 327.984L272.792 328.646L303.304 356.894L304.008 356.232L273.497 327.984Z" fill="white"/>
<path d="M308.154 281.827L307.154 281.836L308.619 412.255L309.619 412.245L308.154 281.827Z" fill="white"/>
<path d="M331.767 285.032L307.796 307.381L308.503 308.04L332.474 285.692L331.767 285.032Z" fill="white"/>
<path d="M325 286H324V293H325V286Z" fill="white"/>
<path d="M333.77 318.603L308.051 342.749L308.76 343.406L334.479 319.26L333.77 318.603Z" fill="white"/>
<path d="M321.65 331.139L320.896 331.751L325.75 336.957L326.505 336.346L321.65 331.139Z" fill="white"/>
<path d="M331.834 345.701L308.459 367.418L309.165 368.079L332.54 346.362L331.834 345.701Z" fill="white"/>
<path d="M325 347H324V353H325V347Z" fill="white"/>
<path d="M322.812 373.999H309.117V373.065H322.812C330.08 373.119 337.186 371.062 343.149 367.179C349.112 363.295 353.638 357.777 356.102 351.386C357.102 347.835 361.4 341.107 362.1 340.173V324.381C362.1 320.363 359.701 317.279 354.902 315.317C352.554 314.376 350.054 313.807 347.505 313.635C347.399 313.635 347.297 313.596 347.222 313.525C347.147 313.455 347.105 313.36 347.105 313.261C347.005 313.074 347.105 312.887 347.305 312.794C350.004 311.112 351.903 303.543 352.103 302.889V286.163C352.103 279.248 343.906 279.154 343.606 279.154C343.306 279.154 343.106 278.967 343.106 278.687C343.106 273.828 340.607 270.464 335.808 268.502C332.109 267.007 328.411 267.007 328.411 267.007C328.111 267.007 327.911 266.82 327.911 266.539C327.911 254.859 320.813 252.056 320.713 252.056L320.613 251.962C320.613 251.962 318.914 251.121 307.617 251.121C296.221 251.121 295.921 261.4 295.921 261.867C295.921 262.148 295.721 262.335 295.421 262.335H285.624C281.225 262.335 276.726 269.436 276.127 270.371V282.425C276.127 282.705 275.927 282.892 275.627 282.892H271.628C260.232 282.892 258.132 296.348 258.132 296.535V320.737C258.132 323.82 260.332 324.755 262.231 325.689L262.831 325.969C263.131 326.063 263.331 326.343 263.331 326.624C263.531 327.558 262.031 328.96 259.232 331.483C256.833 333.632 254.133 336.155 252.934 338.304C250.934 341.948 251.934 346.34 255.933 351.293C257.033 352.601 257.832 353.909 258.732 355.404C260.332 358.021 262.431 361.385 266.929 366.15C273.727 373.345 303.418 372.504 303.618 372.504V373.439C302.419 373.439 273.128 374.28 266.13 366.711C261.531 361.852 259.532 358.488 257.832 355.778C256.933 354.283 256.133 352.975 255.133 351.76C250.934 346.527 249.935 341.761 252.134 337.837C253.434 335.594 256.133 332.978 258.632 330.735C260.232 329.24 262.531 327.184 262.431 326.624L261.831 326.343C259.832 325.502 257.133 324.287 257.133 320.55V296.254C257.133 296.068 259.332 281.771 271.628 281.771H275.127V270.09L275.227 269.903C275.427 269.53 280.425 261.213 285.624 261.213H294.921C295.121 259.064 296.62 250 307.617 250C318.414 250 320.713 250.748 321.113 251.028C321.713 251.308 328.711 254.298 328.81 265.979C331.41 266.072 343.706 267.38 344.006 278.126C346.005 278.22 353.003 279.248 353.003 286.069V302.982C352.903 303.263 351.304 310.084 348.704 312.794C352.303 313.261 363 315.504 363 324.381V340.266L362.9 340.547C362.9 340.64 357.902 348.022 357.002 351.666C354.477 358.239 349.832 363.917 343.708 367.917C337.584 371.918 330.283 374.043 322.812 373.999Z" fill="white"/>
<path d="M883.801 148.428L843.805 162.37L844.505 164.116L884.501 150.175L883.801 148.428Z" fill="white"/>
<path d="M914 141C914.552 141 915 140.552 915 140C915 139.448 914.552 139 914 139C913.448 139 913 139.448 913 140C913 140.552 913.448 141 914 141Z" fill="white"/>
<path d="M987.597 144L987 143.259C987.398 142.981 1024.29 113.9 1055.22 98.1553C1073.03 89.0789 1092.22 86.9488 1096.99 88.4306C1100.08 89.3568 1101.67 90.746 1101.97 92.5983C1102.66 97.5996 1092.32 103.805 1091.92 104.083L1091.42 103.342C1091.52 103.249 1101.67 97.1365 1101.07 92.7836C1100.87 91.3017 1099.38 90.1903 1096.79 89.3568C1092.12 87.9675 1073.32 90.0051 1055.72 98.9888C1024.89 114.733 987.994 143.722 987.597 144Z" fill="white"/>
<path d="M792.424 91.1742L791.78 91.8873L861.771 146.835L862.415 146.122L792.424 91.1742Z" fill="white"/>
<path d="M841.619 172C838.217 172 835.415 170.411 834.414 167.794C833.113 164.429 834.914 160.317 839.317 156.952C846.787 151.938 854.764 147.618 863.135 144.054C881.431 135.352 900.203 127.553 919.375 120.688L981.52 99.0981C1035.36 80.5923 1109.01 55.1701 1117.42 51.525L1123.02 48.908C1141.84 40.1224 1191.67 16.6629 1223.89 32.178C1228.6 34.4211 1231 37.4119 1231 40.9636C1230.9 53.9551 1197.88 69.7505 1191.27 72.8348C1169.46 82.8354 1094.2 108.164 1093.4 108.351L1092.7 106.575C1093.5 106.295 1168.66 81.0596 1190.37 71.059C1208.08 62.9276 1228.8 50.123 1228.9 40.8701C1228.9 38.0662 1226.9 35.6361 1222.89 33.7668C1191.67 18.7192 1142.34 41.8047 1123.82 50.4969L1118.12 53.1139C1109.61 56.759 1038.86 81.1531 982.12 100.78C952.799 110.875 927.481 119.567 919.976 122.371C900.877 129.253 882.172 137.052 863.935 145.737C853.227 150.877 845.222 154.709 840.518 158.448C836.215 161.812 835.515 165.177 836.215 167.14C836.916 169.009 838.917 170.131 841.519 170.131C849.225 170.131 929.382 162.093 940.991 158.915C948.596 156.859 984.422 144.241 1010.64 134.988C1025.95 129.567 1038.16 125.361 1040.56 124.614L1041.16 126.39L1011.34 136.764C985.123 146.017 949.197 158.635 941.491 160.691C929.983 163.962 849.425 172 841.619 172Z" fill="white"/>
<path d="M1536.31 500H1534.31V498.332C1533.91 491.102 1553.1 469.693 1558.6 463.761H1218.94C1212.84 463.761 1210.94 471.268 1210.94 471.361L1210.74 472.102H1075.3C1075.8 473.585 1076.9 476.922 1080 484.8C1084.7 496.941 1095.39 498.57 1095.89 498.57L1095.99 500.42C1095.89 500.42 1083.3 498.888 1078.1 485.449C1076.16 480.797 1074.46 476.065 1073 471.268V470.341H1209.14C1209.84 468.21 1212.44 462 1218.94 462H1563L1561.6 463.576C1554.5 471.176 1536.11 492.215 1536.41 498.424L1536.31 500Z" fill="white"/>
<path d="M842.954 157L783 94.9127L802.185 87.548C802.885 87.1751 805.383 86.0564 811.078 88.7599C816.774 91.4634 866.236 112.346 876.028 116.261C892.816 123.16 906.005 125.956 912.301 123.905L913 125.677C903.807 128.66 885.421 122.134 875.329 118.032C865.636 114.024 816.075 93.1414 810.379 90.4379C805.283 88.0141 803.484 89.1328 803.484 89.1328L803.284 89.226L786.597 95.6585L844.653 155.788L842.954 157Z" fill="white"/>
<path d="M1043.18 126C1041.8 126 1041.41 125.636 1041.21 125.364L1041.11 125.182L1039.13 120C1038.84 119.273 1038.64 117.545 1043.18 114.545C1047.73 111.545 1060.08 104.091 1060.18 104L1061.27 105.545C1061.17 105.636 1048.82 113.091 1044.37 116C1041.21 118.091 1041.01 119.182 1041.01 119.364L1042.79 124.182C1043.18 124.182 1044.27 124.182 1046.54 123.727C1051.98 122.545 1066.41 120 1066.6 120L1067 121.818C1066.9 121.818 1052.37 124.455 1047.04 125.545C1045.26 125.909 1043.97 126 1043.18 126Z" fill="white"/>
<path d="M1069.21 123C1068.2 123 1067 122.718 1065.99 121.777L1065.89 121.683L1058.34 103.721C1058.14 103.438 1057.74 102.404 1058.24 101.181C1058.75 99.7706 1060.36 98.548 1062.87 97.7016C1068.31 95.8206 1080.68 91.8707 1081.59 91.5886C1081.99 91.4005 1084.2 90.554 1086.11 91.3064C1087.32 91.7766 1088.13 92.7171 1088.63 94.1278C1089.84 97.8896 1093.86 107.2 1094.16 107.953C1094.37 108.329 1095.47 110.492 1094.77 112.467C1094.48 113.112 1094.06 113.696 1093.52 114.181C1092.99 114.667 1092.35 115.044 1091.65 115.288C1087.22 116.981 1073.34 121.871 1072.23 122.248C1071.83 122.53 1070.62 123 1069.21 123ZM1067.6 120.555C1069.11 121.777 1071.22 120.649 1071.32 120.649L1071.42 120.555C1071.52 120.461 1086.32 115.288 1090.84 113.501C1091.85 113.125 1092.55 112.561 1092.76 111.808C1093.26 110.398 1092.35 108.799 1092.35 108.705L1092.25 108.611C1092.05 108.235 1087.93 98.548 1086.62 94.598C1086.32 93.7516 1085.91 93.1873 1085.31 92.9052C1084.3 92.529 1082.89 92.9052 1082.39 93.0933L1082.29 93.1873C1082.19 93.1873 1069.11 97.3254 1063.58 99.3003C1061.16 100.147 1060.46 100.993 1060.15 101.651C1059.95 102.216 1060.15 102.686 1060.15 102.686L1060.26 102.78L1067.6 120.555Z" fill="white"/>
<path d="M1082.68 92.7529L1081.75 93.0946L1090.95 114.867L1091.88 114.526L1082.68 92.7529Z" fill="white"/>
<path d="M1229 391H1228V362.495L1186 381.935L1185.8 381.841L1145 362.495V391H1144V361L1186 380.907L1229 361V391Z" fill="white"/>
<path d="M1186.95 382L1179.18 372.3L1145 361.942L1145.3 361L1179.78 371.453L1186.95 380.493L1191.04 375.596L1194.12 371.453L1228.7 361L1229 361.942L1194.72 372.206L1191.83 376.067L1186.95 382Z" fill="white"/>
<path d="M1145 393C1146.1 393 1147 392.1 1147 391C1147 389.9 1146.1 389 1145 389C1143.9 389 1143 389.9 1143 391C1143 392.1 1143.9 393 1145 393Z" fill="white"/>
<path d="M1229 393C1230.1 393 1231 392.1 1231 391C1231 389.9 1230.1 389 1229 389C1227.9 389 1227 389.9 1227 391C1227 392.1 1227.9 393 1229 393Z" fill="white"/>
<path d="M1145 364C1145.53 364 1146.04 363.789 1146.41 363.414C1146.79 363.039 1147 362.53 1147 362C1147 361.47 1146.79 360.961 1146.41 360.586C1146.04 360.211 1145.53 360 1145 360C1144.47 360 1143.96 360.211 1143.59 360.586C1143.21 360.961 1143 361.47 1143 362C1143 363.1 1143.9 364 1145 364Z" fill="white"/>
<path d="M1229 364C1229.53 364 1230.04 363.789 1230.41 363.414C1230.79 363.039 1231 362.53 1231 362C1231 361.47 1230.79 360.961 1230.41 360.586C1230.04 360.211 1229.53 360 1229 360C1228.47 360 1227.96 360.211 1227.59 360.586C1227.21 360.961 1227 361.47 1227 362C1227 363.1 1227.9 364 1229 364Z" fill="white"/>
<path d="M1179 374C1179.53 374 1180.04 373.789 1180.41 373.414C1180.79 373.039 1181 372.53 1181 372C1181 371.47 1180.79 370.961 1180.41 370.586C1180.04 370.211 1179.53 370 1179 370C1178.47 370 1177.96 370.211 1177.59 370.586C1177.21 370.961 1177 371.47 1177 372C1177 373.1 1177.9 374 1179 374Z" fill="white"/>
<path d="M1182 378C1182.53 378 1183.04 377.789 1183.41 377.414C1183.79 377.039 1184 376.53 1184 376C1184 375.47 1183.79 374.961 1183.41 374.586C1183.04 374.211 1182.53 374 1182 374C1181.47 374 1180.96 374.211 1180.59 374.586C1180.21 374.961 1180 375.47 1180 376C1180 377.1 1180.9 378 1182 378Z" fill="white"/>
<path d="M1191 378C1191.53 378 1192.04 377.789 1192.41 377.414C1192.79 377.039 1193 376.53 1193 376C1193 375.47 1192.79 374.961 1192.41 374.586C1192.04 374.211 1191.53 374 1191 374C1190.47 374 1189.96 374.211 1189.59 374.586C1189.21 374.961 1189 375.47 1189 376C1189 377.1 1189.9 378 1191 378Z" fill="white"/>
<path d="M1194 374C1194.53 374 1195.04 373.789 1195.41 373.414C1195.79 373.039 1196 372.53 1196 372C1196 371.47 1195.79 370.961 1195.41 370.586C1195.04 370.211 1194.53 370 1194 370C1193.47 370 1192.96 370.211 1192.59 370.586C1192.21 370.961 1192 371.47 1192 372C1192 373.1 1192.9 374 1194 374Z" fill="white"/>
<path d="M1545 480H1078V481H1545V480Z" fill="white"/>
<path d="M1163 470H1162V497H1163V470Z" fill="white"/>
<path d="M1188 345H1186V471H1188V345Z" fill="white"/>
<path d="M1183.1 468.8H1181.1V457.8H1175.1C1171.1 457.8 1171.1 461.6 1171.1 461.8V468.8H1169.1V461.8C1169.1 459.7 1170.4 455.8 1175.1 455.8H1183.1V468.8Z" fill="white"/>
<path d="M1201.2 468.6H1199.2V464.2C1199.2 463.8 1199.1 462 1197 462H1193.6V468.6H1191.6V460H1197C1200.1 460 1201.2 462.5 1201.2 464.2V468.6Z" fill="white"/>
<path d="M1339.1 459.3H1337.1C1337.1 458 1336.6 456.7 1335.7 454.3C1334.4 451 1332.5 446 1330.2 436.6C1326.5 421.3 1316.6 421.7 1316.2 421.8H1288.1V434.3H1256.1V439.8H1225.1V456.8H1209.1V454.8H1223.1V437.8H1254.1V432.3H1286.1V419.8H1316.1C1316.2 419.8 1327.9 419.2 1332.1 436.2C1334.4 445.5 1336.3 450.4 1337.6 453.6C1338.5 456.1 1339.1 457.6 1339.1 459.3Z" fill="white"/>
<path d="M1333.1 444.3H1224.1V445.3H1333.1V444.3Z" fill="white"/>
<path d="M1332.1 438.9H1255.1V439.9H1332.1V438.9Z" fill="white"/>
<path d="M1330.1 433.4H1288.1V434.4H1330.1V433.4Z" fill="white"/>
</g>
</svg>
